<svg width="50" height="50" viewBox="0 0 50 50" fill="none" xmlns="http://www.w3.org/2000/svg">
<path d="M7.63221 42.9822C5.24445 40.676 3.3399 37.9174 2.02967 34.8673C0.719445 31.8172 0.0297893 28.5367 0.000943919 25.2172C-0.0279015 21.8978 0.604641 18.6058 1.86166 15.5334C3.11869 12.4609 4.97501 9.66965 7.32233 7.32233C9.66965 4.97501 12.4609 3.11869 15.5334 1.86166C18.6058 0.604641 21.8978 -0.0279015 25.2172 0.000943919C28.5367 0.0297893 31.8172 0.719445 34.8673 2.02967C37.9174 3.3399 40.676 5.24445 42.9822 7.63221C47.5362 12.3473 50.056 18.6623 49.9991 25.2172C49.9421 31.7722 47.3129 38.0425 42.6777 42.6777C38.0425 47.3129 31.7722 49.9421 25.2172 49.9991C18.6623 50.056 12.3473 47.5362 7.63221 42.9822ZM22.8072 12.8072V27.8072H27.8072V12.8072H22.8072ZM22.8072 32.8072V37.8072H27.8072V32.8072H22.8072Z" fill="#FF7C10"/>
</svg>
