<svg width="48" height="57" viewBox="0 0 48 57" fill="none" xmlns="http://www.w3.org/2000/svg">
<path d="M28.3636 33.9808C28.3636 35.0648 28.0437 36.1244 27.4444 37.0257C26.845 37.927 25.9931 38.6295 24.9965 39.0443C23.9998 39.4592 22.903 39.5677 21.845 39.3562C20.7869 39.1448 19.815 38.6228 19.0521 37.8563C18.2893 37.0898 17.7698 36.1132 17.5594 35.05C17.3489 33.9869 17.4569 32.8848 17.8697 31.8834C18.2826 30.8819 18.9817 30.0259 19.8787 29.4237C20.7757 28.8214 21.8303 28.5 22.9091 28.5C24.3557 28.5 25.7431 29.0774 26.766 30.1053C27.789 31.1331 28.3636 32.5272 28.3636 33.9808ZM48 17.5385V52.6154C48 53.7783 47.5403 54.8935 46.7219 55.7158C45.9036 56.5381 44.7937 57 43.6364 57H4.36364C3.20633 57 2.09642 56.5381 1.27808 55.7158C0.459739 54.8935 0 53.7783 0 52.6154V4.38462C0 3.22174 0.459739 2.1065 1.27808 1.28422C2.09642 0.46195 3.20633 6.77858e-07 4.36364 6.77858e-07H30.5455C30.8321 -0.000225777 31.1159 0.0562893 31.3808 0.166317C31.6456 0.276345 31.8863 0.437729 32.0891 0.641251L47.3618 15.9874C47.5644 16.1912 47.725 16.433 47.8345 16.6991C47.944 16.9653 48.0002 17.2505 48 17.5385ZM34.2709 42.2951L31.2164 39.2286C32.504 37.1727 32.9926 34.7121 32.5889 32.3171C32.1852 29.922 30.9175 27.7604 29.0279 26.2452C27.1383 24.7299 24.7594 23.9674 22.3456 24.1031C19.9319 24.2389 17.6525 25.2635 15.943 26.9812C14.2336 28.6989 13.2139 30.9892 13.0787 33.4146C12.9436 35.8399 13.7025 38.2303 15.2105 40.129C16.7185 42.0277 18.8698 43.3015 21.2534 43.7072C23.6369 44.1128 26.0857 43.6218 28.1318 42.328L31.1836 45.3972C31.3863 45.6009 31.627 45.7625 31.8919 45.8727C32.1567 45.9829 32.4406 46.0397 32.7273 46.0397C33.014 46.0397 33.2978 45.9829 33.5627 45.8727C33.8275 45.7625 34.0682 45.6009 34.2709 45.3972C34.4736 45.1935 34.6344 44.9517 34.7441 44.6856C34.8538 44.4194 34.9103 44.1342 34.9103 43.8462C34.9103 43.5581 34.8538 43.2729 34.7441 43.0067C34.6344 42.7406 34.4736 42.4988 34.2709 42.2951ZM42.5455 17.5385L30.5455 5.48077V17.5385H42.5455Z" fill="#155BBC"/>
</svg>
