<svg width="35" height="41" viewBox="0 0 35 41" fill="none" xmlns="http://www.w3.org/2000/svg">
<path d="M18.5294 41L18.0147 34.85H17.5C12.6275 34.85 8.49265 33.1587 5.09559 29.7762C1.69853 26.3937 0 22.2767 0 17.425C0 12.5733 1.69853 8.45625 5.09559 5.07375C8.49265 1.69125 12.6275 0 17.5 0C19.9363 0 22.2099 0.452367 24.3209 1.3571C26.4319 2.26183 28.2848 3.50892 29.8797 5.09835C31.4746 6.68778 32.7264 8.53278 33.635 10.6333C34.5436 12.7339 34.9986 14.9978 35 17.425C35 19.9875 34.58 22.4475 33.74 24.805C32.9 27.1625 31.7498 29.3492 30.2894 31.365C28.829 33.3808 27.0962 35.2088 25.0909 36.8488C23.0856 38.4888 20.8984 39.8725 18.5294 41ZM17.4485 28.6488C18.0319 28.6488 18.5294 28.4438 18.9412 28.0338C19.3529 27.6238 19.5588 27.1283 19.5588 26.5475C19.5588 25.9667 19.3529 25.4713 18.9412 25.0613C18.5294 24.6513 18.0319 24.4462 17.4485 24.4462C16.8652 24.4462 16.3676 24.6513 15.9559 25.0613C15.5441 25.4713 15.3382 25.9667 15.3382 26.5475C15.3382 27.1283 15.5441 27.6238 15.9559 28.0338C16.3676 28.4438 16.8652 28.6488 17.4485 28.6488ZM15.9559 22.14H19.0441C19.0441 21.115 19.1471 20.3975 19.3529 19.9875C19.5588 19.5775 20.2108 18.8258 21.3088 17.7325C21.9265 17.1175 22.4412 16.4513 22.8529 15.7338C23.2647 15.0162 23.4706 14.2475 23.4706 13.4275C23.4706 11.685 22.879 10.3778 21.6959 9.50585C20.5127 8.63392 19.1141 8.19863 17.5 8.2C15.9902 8.2 14.7206 8.61888 13.6912 9.45665C12.6618 10.2944 11.9412 11.3105 11.5294 12.505L14.4118 13.6325C14.5833 13.0517 14.9093 12.4797 15.3897 11.9166C15.8701 11.3536 16.5735 11.0714 17.5 11.07C18.4265 11.0686 19.1217 11.3249 19.5856 11.8387C20.0495 12.3526 20.2808 12.9164 20.2794 13.53C20.2794 14.1108 20.1078 14.6322 19.7647 15.0941C19.4216 15.5561 19.0098 16.0255 18.5294 16.5025C17.3284 17.5275 16.5996 18.3393 16.3429 18.9379C16.0863 19.5365 15.9573 20.6039 15.9559 22.14Z" fill="#1351B4"/>
</svg>
