<svg width="18" height="21" viewBox="0 0 18 21" fill="none" xmlns="http://www.w3.org/2000/svg">
<path d="M10.2131 12.1772C10.2131 12.5656 10.0979 12.9454 9.88212 13.2684C9.66631 13.5914 9.35956 13.8431 9.00068 13.9917C8.64179 14.1404 8.24688 14.1793 7.86589 14.1035C7.4849 14.0277 7.13494 13.8407 6.86026 13.566C6.58558 13.2913 6.39852 12.9413 6.32274 12.5604C6.24695 12.1794 6.28585 11.7845 6.4345 11.4256C6.58316 11.0667 6.8349 10.7599 7.15789 10.5441C7.48088 10.3283 7.86061 10.2131 8.24906 10.2131C8.76996 10.2131 9.26953 10.4201 9.63786 10.7884C10.0062 11.1567 10.2131 11.6563 10.2131 12.1772ZM17.2837 6.285V18.855C17.2837 19.2717 17.1182 19.6714 16.8235 19.966C16.5289 20.2607 16.1292 20.4263 15.7125 20.4263H1.57125C1.15453 20.4263 0.754875 20.2607 0.460208 19.966C0.165542 19.6714 0 19.2717 0 18.855V1.57125C0 1.15453 0.165542 0.754875 0.460208 0.460209C0.754875 0.165542 1.15453 2.42914e-07 1.57125 2.42914e-07H10.9987C11.1019 -8.09083e-05 11.2042 0.0201716 11.2995 0.0596006C11.3949 0.0990296 11.4816 0.156863 11.5546 0.229796L17.054 5.72917C17.1269 5.80218 17.1847 5.88885 17.2241 5.98422C17.2636 6.0796 17.2838 6.1818 17.2837 6.285ZM12.3402 15.1567L11.2403 14.0578C11.704 13.321 11.8799 12.4393 11.7346 11.581C11.5892 10.7227 11.1327 9.94808 10.4523 9.40509C9.77191 8.8621 8.91531 8.58883 8.04616 8.63749C7.17702 8.68615 6.35627 9.05332 5.74074 9.66886C5.1252 10.2844 4.75802 11.1051 4.70936 11.9743C4.6607 12.8434 4.93398 13.7 5.47696 14.3804C6.01995 15.0608 6.79459 15.5173 7.65287 15.6627C8.51115 15.8081 9.3929 15.6321 10.1297 15.1685L11.2285 16.2683C11.3015 16.3413 11.3882 16.3992 11.4836 16.4387C11.5789 16.4782 11.6811 16.4986 11.7844 16.4986C11.8876 16.4986 11.9898 16.4782 12.0852 16.4387C12.1806 16.3992 12.2672 16.3413 12.3402 16.2683C12.4132 16.1953 12.4711 16.1087 12.5106 16.0133C12.5501 15.9179 12.5704 15.8157 12.5704 15.7125C12.5704 15.6093 12.5501 15.5071 12.5106 15.4117C12.4711 15.3163 12.4132 15.2297 12.3402 15.1567ZM15.3197 6.285L10.9987 1.96406V6.285H15.3197Z" fill="white"/>
</svg>
