<svg width="49" height="49" viewBox="0 0 49 49" fill="none" xmlns="http://www.w3.org/2000/svg">
<path d="M11.3355 20.0792L3.01764 24.7389C1.88082 25.3759 1.14335 25.7924 0.641095 26.1672C0.163336 26.5249 0.0628845 26.7282 0.0236838 26.8703C-0.015517 27.0124 -0.0326672 27.2329 0.192737 27.767C0.432841 28.3354 0.856699 29.0532 1.51331 30.1556C2.16992 31.2581 2.59623 31.971 2.98334 32.4585C3.34839 32.9167 3.56155 33.022 3.72325 33.0637C3.88985 33.1078 4.13241 33.1176 4.68857 32.8971C5.27658 32.6619 6.01894 32.2503 7.15331 31.6133L15.4271 26.9781C15.04 26.4294 14.6406 25.7532 14.1898 25.0011L12.5679 22.2743C12.0779 21.4512 11.6467 20.7236 11.3355 20.0792Z" fill="#155BBC"/>
<path d="M39.1411 1.47466C40.2755 0.837684 41.0178 0.426102 41.6083 0.190913C42.162 -0.0295778 42.4046 -0.0173285 42.5712 0.0243197C42.7329 0.0684178 42.946 0.171313 43.3086 0.629443C43.6982 1.11697 44.1269 1.82989 44.7811 2.93234L47.486 7.47934C48.1426 8.58179 48.564 9.29716 48.8065 9.86554C49.0319 10.3996 49.0148 10.6201 48.978 10.7622C48.9364 10.9067 48.8359 11.1101 48.3582 11.4653C47.8559 11.8426 47.1185 12.2591 45.9816 12.8961L36.3481 18.2907C35.2749 18.8934 34.5791 19.2805 34.0279 19.4985C33.5133 19.7043 33.3026 19.6872 33.1703 19.6504C33.0356 19.6161 32.8445 19.5279 32.5015 19.0943C32.134 18.6337 31.7297 17.9551 31.105 16.9041L28.2139 12.0508C27.572 10.9704 27.1604 10.2698 26.9227 9.71609C26.7022 9.19427 26.7194 8.98113 26.7561 8.84883C26.7929 8.71654 26.8835 8.523 27.3392 8.18246C27.8243 7.81498 28.5373 7.41565 29.6423 6.79582L39.1411 1.47466ZM16.2626 15.8016L24.7152 11.0709C25.0239 11.7152 25.4576 12.4428 25.9476 13.266L28.922 18.2638C29.3703 19.0183 29.7721 19.6921 30.1568 20.2433L26.3666 22.3649L36.598 46.3493C36.6958 46.5808 36.7468 46.8294 36.748 47.0807C36.7492 47.332 36.7005 47.5811 36.6048 47.8134C36.5091 48.0458 36.3683 48.2569 36.1905 48.4345C36.0127 48.6122 35.8014 48.7528 35.5689 48.8482C35.0972 49.0465 34.5663 49.0507 34.0915 48.8598C33.6168 48.669 33.2364 48.2986 33.0331 47.8291L24.4996 27.8281L15.9661 47.8291C15.7628 48.298 15.3829 48.668 14.9087 48.8587C14.4345 49.0495 13.9042 49.0457 13.4328 48.8482C13.2003 48.7528 12.989 48.6122 12.8112 48.4345C12.6334 48.2569 12.4926 48.0458 12.3969 47.8134C12.3012 47.5811 12.2526 47.332 12.2537 47.0807C12.2549 46.8294 12.3059 46.5808 12.4038 46.3493L21.4591 25.1137C20.4742 25.6649 19.8201 26.025 19.2982 26.2333C18.7812 26.4391 18.5705 26.4219 18.4382 26.3876C18.3035 26.3509 18.1124 26.2627 17.7694 25.829C17.4043 25.3685 16.9976 24.6898 16.3728 23.6388L14.8367 21.0566C14.1923 19.9787 13.7807 19.278 13.543 18.7219C13.3225 18.2001 13.3397 17.9894 13.3764 17.8571C13.4132 17.7223 13.5038 17.5313 13.9595 17.1883C14.4447 16.8232 15.1601 16.419 16.2626 15.8016Z" fill="#155BBC"/>
</svg>
